<svg xmlns="http://www.w3.org/2000/svg" viewBox="0 0 64 64" fill="none" shape-rendering="auto" aria-hidden="true"><metadata xmlns:rdf="http://www.w3.org/1999/02/22-rdf-syntax-ns#" xmlns:xsi="http://www.w3.org/2001/XMLSchema-instance" xmlns:dc="http://purl.org/dc/elements/1.1/" xmlns:dcterms="http://purl.org/dc/terms/"><rdf:RDF><rdf:Description><dc:title>Personas by Draftbit</dc:title><dc:creator>Draftbit - draftbit.com</dc:creator><dc:source xsi:type="dcterms:URI">https://personas.draftbit.com/</dc:source><dcterms:license xsi:type="dcterms:URI">https://creativecommons.org/licenses/by/4.0/</dcterms:license><dc:rights>Remix of “Personas by Draftbit” (https://personas.draftbit.com/) by “Draftbit - draftbit.com”, licensed under “CC BY 4.0” (https://creativecommons.org/licenses/by/4.0/)</dc:rights></rdf:Description></rdf:RDF></metadata><defs><g id="eyes-sleep-b76e96b8"><path d="M7.5 3.63a1 1 0 0 1 1 1.74A4.5 4.5 0 0 1 6.25 6 4.5 4.5 0 0 1 4 5.37a1 1 0 0 1 1-1.74Q5.65 4 6.25 4t1.25-.37m12 0a1 1 0 0 1 1 1.74 4.5 4.5 0 0 1-2.25.63A4.5 4.5 0 0 1 16 5.37a1 1 0 0 1 1-1.74q.65.37 1.25.37t1.25-.37" fill="#1B0640"/></g><g id="hair-long-b76e96b8"><path fill-rule="evenodd" clip-rule="evenodd" d="M36.5 23.5q-2.7-3-3.97-7.47-2.8 3.42-8.03 3.97-8.75.91-14.95-2.82A14 14 0 0 0 8.5 22.5v1.03q-1.11.13-2 .73V23c0-9.11 7.16-16.5 16-16.5s16 7.39 16 16.5v1.26a4.5 4.5 0 0 0-2-.73zm2 8.24v6.6c0 7.32-4.61 13.52-11 15.68V41.58a14 14 0 0 0 8.42-9.08H36q1.4-.02 2.5-.76m-32 6.6c0 7.37 4.68 13.6 11.13 15.73l-.13-7.02v-5.47a14 14 0 0 1-8.42-9.08H9q-1.4-.02-2.5-.76z" fill="#dee1f5"/><path d="M32.53 16.03a18.5 18.5 0 0 0 3.97 7.47v.03q1.11.13 2 .73V23c0-9.11-7.16-16.5-16-16.5s-16 7.39-16 16.5v1.26q.89-.6 2-.73V22.5q.02-2.84 1.05-5.32 6.2 3.74 14.95 2.82 5.22-.56 8.03-3.97" fill="white" opacity=".26" style="mix-blend-mode:overlay"/></g><g id="clothes-rounded-b76e96b8"><path d="M16 4.8v.47a5 5 0 0 0 10 0V4.8c7.06 1.52 12.93 6.74 16 13H0c3.07-6.26 8.94-11.48 16-13" fill="#7555ca"/></g><g id="mouth-surprise-b76e96b8"><ellipse cx="5" cy="3.54" rx="2" ry="2.5" fill="#1B0640"/></g><g id="nose-wrinkles-b76e96b8"><path opacity=".12" d="m3.4.8-.12.24q-.32 1.12-.2 1.97-.5.8-.87 1.48Q1.54 5.76.97 7.41a.5.5 0 0 1-.94-.32A21 21 0 0 1 3.39.8m7.2-.02.1.1q1.27 1.8 2 3.14.7 1.35 1.3 3.07a.5.5 0 0 1-.96.32A20 20 0 0 0 10.93 3q.1-.85-.2-1.96a1 1 0 0 0-.14-.26" fill="black"/><path d="M4.2.53a.75.75 0 0 0-.92.51q-.3 1.12-.2 1.97C3.32 4.6 4.69 5.5 7 5.5c2.33 0 3.7-.89 3.92-2.5q.1-.85-.2-1.96a.75.75 0 1 0-1.44.42C9.8 3.29 9.2 4 7 4s-2.8-.71-2.28-2.54a.75.75 0 0 0-.5-.93" fill="black" opacity=".36" style="mix-blend-mode:overlay"/></g><clipPath id="clip-b76e96b8"><rect width="64" height="64" rx="0" ry="0"/></clipPath></defs><g clip-path="url(#clip-b76e96b8)"><rect width="64" height="64" fill="#c0aede"/><path d="M37 46.08V52a5 5 0 0 1-10 0v-5.92A14 14 0 0 1 18.58 37h-.08a4.5 4.5 0 0 1-.5-8.97V27a14 14 0 1 1 28 0v1.03a4.5 4.5 0 0 1-.58 8.97A14 14 0 0 1 37 46.08" fill="#eeb4a4"/><mask id="personas-a" style="mask-type:luminance"><path d="M37 46.08V52a5 5 0 0 1-10 0v-5.92A14 14 0 0 1 18.58 37h-.08a4.5 4.5 0 0 1-.5-8.97V27a14 14 0 1 1 28 0v1.03a4.5 4.5 0 0 1-.58 8.97A14 14 0 0 1 37 46.08" fill="white"/></mask><g mask="url(#personas-a)"><path d="M32 13a14 14 0 0 1 14 14v6a14 14 0 1 1-28 0v-6a14 14 0 0 1 14-14" fill="white" opacity=".36" style="mix-blend-mode:overlay"/></g><use transform="translate(20 24)" href="#eyes-sleep-b76e96b8"/><use transform="translate(9.5 4.5)" href="#hair-long-b76e96b8"/><use transform="translate(11 46.2)" href="#clothes-rounded-b76e96b8"/><use transform="translate(27 37.46)" href="#mouth-surprise-b76e96b8"/><use transform="translate(25 32.25)" href="#nose-wrinkles-b76e96b8"/></g></svg>