<svg xmlns="http://www.w3.org/2000/svg" viewBox="0 0 280 280" fill="none" shape-rendering="auto" aria-hidden="true"><metadata xmlns:rdf="http://www.w3.org/1999/02/22-rdf-syntax-ns#" xmlns:xsi="http://www.w3.org/2001/XMLSchema-instance" xmlns:dc="http://purl.org/dc/elements/1.1/" xmlns:dcterms="http://purl.org/dc/terms/"><rdf:RDF><rdf:Description><dc:title>Avataaars</dc:title><dc:creator>Pablo Stanley</dc:creator><dc:source xsi:type="dcterms:URI">https://avataaars.com/</dc:source><dcterms:license xsi:type="dcterms:URI">https://avataaars.com/</dcterms:license><dc:rights>Remix of “Avataaars” (https://avataaars.com/) by “Pablo Stanley”, licensed under “Free for personal and commercial use” (https://avataaars.com/)</dc:rights></rdf:Description></rdf:RDF></metadata><defs><g id="clothes-hoodie-be70e054"><path d="M76 0C60.48 3.7 48.9 10.83 45.23 19.45A72 72 0 0 0 0 86.3v9h200v-9a72 72 0 0 0-45.23-66.86C151.1 10.83 139.52 3.69 124 0v17.3a24 24 0 1 1-48 0z" fill="#25557c"/><path d="M70 48.64a67 67 0 0 1-7-2.81V95.3h7zm60 0a67 67 0 0 0 7-2.81V83.8a3.5 3.5 0 1 1-7 0z" fill="#F4F4F4"/><path d="M155.62 19.8a72 72 0 0 1 10.83 5.62c-1.34 15.5-30.58 27.89-66.45 27.89 30.93 0 56-13.44 56-30q0-1.79-.38-3.52m-111.24.01a17 17 0 0 0-.38 3.5c0 16.57 25.07 30 56 30-35.87 0-65.1-12.38-66.45-27.88a72 72 0 0 1 10.83-5.63" fill="black" fill-opacity=".16"/></g><g id="mouth-screamOpen-be70e054"><path fill-rule="evenodd" clip-rule="evenodd" d="M26 32.86C27.14 18.88 30.24 7 46 7s18.92 11.94 20 26c.08 1.12-.83 2-1.96 2-6.69 0-9.37-2-18.05-2-8.7 0-13.26 2-17.9 2-1.17 0-2.2-.74-2.1-2.14" fill="black" fill-opacity=".7"/><path d="M59.02 11.57Q58.1 12 57 12H36c-.98 0-1.9-.28-2.67-.77C36.23 8.57 40.28 7 46 7c5.95 0 10.1 1.7 13.02 4.57" fill="white"/><path d="M61.8 34.92a44 44 0 0 1-5.54-.82c-2.73-.53-5.65-1.1-10.27-1.1-5.01 0-8.65.66-11.73 1.23-1.45.26-2.77.5-4.06.65A11 11 0 0 1 46 27.2a11 11 0 0 1 15.8 7.72" fill="#FF4F6D"/></g><g id="nose-default-be70e054"><path fill-rule="evenodd" clip-rule="evenodd" d="M0 0c0 4.42 5.37 8 12 8s12-3.58 12-8" fill="black" fill-opacity=".16"/></g><g id="eyes-xDizzy-be70e054"><path d="M20.5 22.7 15 17.2l-5.5 5.5c-.4.4-1.1.4-1.6 0l-1.6-1.6c-.4-.4-.4-1.1 0-1.6l5.5-5.5-5.5-5.5c-.4-.5-.4-1.2 0-1.6l1.6-1.6c.4-.4 1.1-.4 1.6 0l5.5 5.5 5.5-5.5c.4-.4 1.1-.4 1.6 0l1.6 1.6c.4.4.4 1.1 0 1.6L18.2 14l5.5 5.5c.4.4.4 1.1 0 1.6l-1.6 1.6c-.4.4-1.1.4-1.6 0m54 0L69 17.2l-5.5 5.5c-.4.4-1.1.4-1.6 0l-1.6-1.6c-.4-.4-.4-1.1 0-1.6l5.5-5.5-5.5-5.5c-.4-.5-.4-1.2 0-1.6l1.6-1.6c.4-.4 1.1-.4 1.6 0l5.5 5.5 5.5-5.5c.4-.4 1.1-.4 1.6 0l1.6 1.6c.4.4.4 1.1 0 1.6L72.2 14l5.5 5.5c.4.4.4 1.1 0 1.6l-1.6 1.6c-.4.4-1.1.4-1.6 0" fill="black" fill-opacity=".6"/></g><g id="eyebrows-angryNatural-be70e054"><path fill-rule="evenodd" clip-rule="evenodd" d="M11.43 5.01a7.2 7.2 0 0 0-6.44 2.43c-.6.73-1.55 2.48-1.5 3.42 0 .35.22.37 1.12.6 1.64.38 4.5-1.13 6.35-1 2.59.2 5.05 1.4 7.29 2.69 3.84 2.2 8.35 6.84 13.09 6.6.35-.02 5.42-1.74 4.4-2.72-.31-.49-3.02-1.13-3.5-1.36-2.16-1.09-4.36-2.45-6.43-3.72C21.28 9.18 16.86 5.6 11.42 5m73.62.01c2.37-.27 4.86.5 6.43 2.43.59.73 1.55 2.48 1.5 3.42 0 .35-.22.37-1.12.6-1.64.38-4.5-1.13-6.35-1-2.58.2-5.05 1.4-7.28 2.69-3.84 2.2-8.36 6.84-13.1 6.6-.35-.02-5.42-1.74-4.4-2.72.3-.49 3.03-1.13 3.5-1.36 2.17-1.09 4.36-2.45 6.44-3.72C75.19 9.18 79.6 5.6 85.04 5" fill="black" fill-opacity=".6"/></g><g id="top-winterHat02-be70e054"><path d="M196 168h-2v56.06a9 9 0 1 0 2 0zm-126 8h-2v56.06a9 9 0 1 0 2 0z" fill="#F4F4F4"/><circle cx="132" cy="20" r="20" fill="#F4F4F4"/><path d="M92.45 77.53h79.1c6.08 0 9.82 2.93 9.82 9V166c0 30.46 22.63 30.41 22.63 10.92v-73.86C204 68.8 186.77 21 132 21s-72 47.8-72 82.05v73.86c0 19.5 22.63 19.54 22.63-10.92V86.53c0-6.07 3.73-9 9.82-9" fill="#3c4f5c"/><path d="M197.67 67H66.33c9.1-24.5 28.93-46 65.67-46s56.58 21.5 65.67 46" fill="black" fill-opacity=".2"/><path d="M90.2 33.73 101.5 50 114 32H92.66q-1.25.84-2.46 1.73M171.34 32H151l12.5 18 10.95-15.77q-1.5-1.15-3.11-2.23M132.5 50 120 32h25z" fill="white" fill-opacity=".5"/><path d="M98 59 85.5 41 73 59zm31 0-12.5-18L104 59zm18.5-18L160 59h-25zM191 59l-12.5-18L166 59z" fill="black" fill-opacity=".5"/></g><clipPath id="clip-be70e054"><rect width="280" height="280" rx="0" ry="0"/></clipPath></defs><g clip-path="url(#clip-be70e054)"><rect width="280" height="280" fill="#c0aede"/><path d="M140 36a56 56 0 0 0-56 56v6.17A12 12 0 0 0 74 110v14a12 12 0 0 0 10.3 11.88A56 56 0 0 0 116 180.6V199h-4a72 72 0 0 0-72 72v9h200v-9a72 72 0 0 0-72-72h-4v-18.38a56 56 0 0 0 31.7-44.73A12 12 0 0 0 206 124v-14a12 12 0 0 0-10-11.83V92a56 56 0 0 0-56-56" fill="#f8d25c"/><path d="M116 180.61v8a56 56 0 0 0 24 5.39 56 56 0 0 0 24-5.39v-8a56 56 0 0 1-24 5.39 56 56 0 0 1-24-5.39" fill="black" fill-opacity=".1"/><use transform="translate(40 184.7)" href="#clothes-hoodie-be70e054"/><use transform="translate(94 140)" href="#mouth-screamOpen-be70e054"/><use transform="translate(128 130)" href="#nose-default-be70e054"/><use transform="translate(98 98)" href="#eyes-xDizzy-be70e054"/><use transform="translate(91.86 82)" href="#eyebrows-angryNatural-be70e054"/><use transform="translate(8)" href="#top-winterHat02-be70e054"/></g></svg>