<svg xmlns="http://www.w3.org/2000/svg" viewBox="0 0 980 980" fill="none" shape-rendering="auto" aria-hidden="true"><metadata xmlns:rdf="http://www.w3.org/1999/02/22-rdf-syntax-ns#" xmlns:xsi="http://www.w3.org/2001/XMLSchema-instance" xmlns:dc="http://purl.org/dc/elements/1.1/" xmlns:dcterms="http://purl.org/dc/terms/"><rdf:RDF><rdf:Description><dc:title>Lorelei</dc:title><dc:creator>Lisa Wischofsky</dc:creator><dc:source xsi:type="dcterms:URI">https://www.figma.com/community/file/1198749693280469639</dc:source><dcterms:license xsi:type="dcterms:URI">https://creativecommons.org/publicdomain/zero/1.0/</dcterms:license><dc:rights>Remix of “Lorelei” (https://www.figma.com/community/file/1198749693280469639) by “Lisa Wischofsky”, licensed under “CC0 1.0” (https://creativecommons.org/publicdomain/zero/1.0/)</dc:rights></rdf:Description></rdf:RDF></metadata><defs><g id="eyes-variant23-2d6701b5"><path d="M310 10q11-3 22 3 9 6 10 16l18 3q-8 6-17 6-8 0-16-4-4-5-9-8-9-4-18-1 5 4 8 11 4 17-2 36l9-5q2 8-4 13-14 12-33 9-7 0-13-6l-2-12q-2-7 0-13a70 70 0 0 1 47-48M102 21c26 1 52 17 64 41q3 5 1 10-4-2-7-6-9-15-24-24-14-8-31-8 9 16 7 33-1 15-11 24l9 5q-9 4-19 1-17-3-29-14-14-10-19-26-23 2-43-7 3-3 8-2l28-5q6 1 11-3 24-20 55-19" fill="#000000"/></g><g id="eyebrows-variant07-2d6701b5"><path d="M118 28q27 2 46 18 5 3 8 8 2 4-3 5l-22-8q-12-4-24-5l-22 1q-22 6-43 16L37 73l-1-1q2-7 6-13 11-13 27-20 24-12 49-11m194 5q9 3 15 9 6 7 4 15-12-2-23-6-9-2-20-2-10-1-21 4l-13 9q-2 2-3-1-1-5 2-8 9-12 23-18 18-7 36-2" fill="#000000"/></g><g id="earrings-variant03-2d6701b5"><path d="M99 89q6 3 6 9 2 13-1 25-1 11-8 17-9 2-13-6-3-13 0-26 0-9 5-16 5-6 11-3" fill="#000000"/></g><g id="nose-variant06-2d6701b5"><path d="M54 97q0 13-10 23-5 5-14 6-9-1-19-5-6-2-11-6l5-4c9-1 17 3 25 4q6-1 9-6 7-8 15-12" fill="#000000"/></g><g id="mouth-happy04-2d6701b5"><path d="m213 22-18 14q-16 11-36 19-5 3-10 3l-17-2h-23l-23-1q-9-2-15-9H58q-7 0-4-7 4-4 10-6 8-3 15 1l7 7 5 2 46 3q7 3 15 3l14-6 38-19q4-2 9-2" fill="#000000"/></g><g id="beard-variant01-2d6701b5"><path d="M417 7q14 1 23 11a29 29 0 0 1-7 42q13 4 22 13 16 18 15 41-1 11-8 21-13 19-35 28 5 3 8 9 4 10 4 21-1 20-15 34a62 62 0 0 1-38 17q-15 1-31-3-1 12-6 22-9 15-24 24-22 11-46 2-18-7-28-24-22 13-48 13-22 2-43-7-10-6-18-15-4-5-6-11-18 13-39 8-15-4-24-16-7-11-5-23H53q-12-2-22-11-18-15-27-37l-4-18q0-18 11-31-4-10-2-21 6-19 22-28 15-9 31-8 3-8 10-14 17-14 40-15 15-1 28 4 5-7 14-11 17-5 35 1l51 26q10 3 19 3 10 1 22-1 4 1 9-2l18-11 20-14q13-10 28-9 6 1 9 6a92 92 0 0 1 52-16" fill="#000000"/><g opacity=".4"><mask id="beardVariant01-a" style="mask-type:alpha"><use transform="translate(117 56)" href="#mouth-happy04-2d6701b5"/></mask><g mask="url(#beardVariant01-a)"><rect x="-302" y="-577" width="981" height="1068" fill="white"/></g></g></g><g id="head-variant02-2d6701b5"><path d="M290 4c57-1 115 19 159 56q39 34 59 81c14 34 20 73 14 109q-1 8-4 12l-2-2 1-33A215 215 0 0 0 345 21 235 235 0 0 0 75 174q-18 57-6 115l17-1q4 0 6 3 1 3-2 4l-11 3q-21 5-37 19a63 63 0 0 0-22 45q-1 18 8 35 12 20 32 31 30 16 63 6h6q3 2 4 6l15 29q10 15 21 27 23 23 51 36 43 21 90 27 6 1 10 4 1 3-2 4l-11 1a231 231 0 0 1-147-62q8 26 8 54 0 17-7 33-6 15-18 27a196 196 0 0 1-61 43l3-3 17-14q19-17 35-38a93 93 0 0 0 16-65l-3-39-2-10q-7-8-12-17-9-15-14-31-11 3-22 3c-28 1-56-12-74-34a81 81 0 0 1-18-51q0-18 8-34 14-25 39-36-11-47-2-93 12-61 51-108C149 38 219 6 290 4" fill="black"/><path d="M345 21a214 214 0 0 1 172 206l-1 33v15q-3 2-3 5-3 27 1 55 7 43 2 88-4 43-30 79-26 31-63 43-21 7-44 12l-33 9q3 2 7 2l36-2q-7 11-10 26-1 15 10 26 10 10 24 14 8 3 17 3 11 13 14 30 3 18-8 34-15 20-37 30-27 13-58 18a352 352 0 0 1-191-24c-18-9-38-23-48-41q-7-11-7-25 28-14 48-37 12-12 18-27 7-16 7-33 0-28-8-54l19 16a235 235 0 0 0 128 46l11-1q2-1 2-4-4-3-10-4-47-6-90-27-28-13-51-36-11-12-21-27l-15-29q-1-4-4-6h-6a82 82 0 0 1-95-37q-8-17-8-35 2-28 22-45 16-14 37-19l11-3q3-1 2-4-2-3-6-3l-17 1q-12-58 6-115 21-59 69-101a236 236 0 0 1 201-52" fill="#ffffff"/><path d="m516 275 3 3 1 13 3 45q5 30 5 60 0 23-5 47-10 43-40 76-15 15-33 25-26 16-55 21c-1 8-5 16-4 25q0 8 5 14 13 13 28 20l18 9-12 2q-9 0-17-3-14-4-24-14-11-11-10-26 3-15 10-26-18 3-36 2-4 0-7-2l33-9q23-4 44-12 38-13 63-43 26-36 30-79 5-45-2-88-4-27-1-55 0-3 3-5M66 334q8 0 15 7 3 5 1 10l-11 22q-1 5 3 9l23 10-1 2H85q-9-1-17-6-9-6-7-17l11-23c-6-4-13-2-19-8q5-6 13-6" fill="black"/><use transform="translate(159 232)" href="#eyes-variant23-2d6701b5"/><use transform="translate(164 126)" href="#eyebrows-variant07-2d6701b5"/><use transform="translate(0 338)" href="#earrings-variant03-2d6701b5"/><use transform="translate(359 274)" href="#nose-variant06-2d6701b5"/><use transform="translate(223 402)" href="#mouth-happy04-2d6701b5"/><use transform="translate(106 346)" href="#beard-variant01-2d6701b5"/></g><g id="hair-variant17-2d6701b5"><path d="M437 96q3-3 8-2 5 3 2 7l-6 4-14 14q-8 11-13 23l18-9a223 223 0 0 1 134-19 216 216 0 0 1 54 22l3 9q-6-2-13-2l-32-3q-23 2-44 9l-16 7 18 1q33 2 64 15 20 8 36 21 29 26 42 62 8 31 2 60-2 3-1 7 6 16 9 34 8 36 8 74 1 33-10 64-11 23-32 38-8 5-16 4-4-1-5-5 6-1 10-6 15-12 22-31a112 112 0 0 0 12-46q-17 58-62 99l4 59-8 3q-6 4-7 12-1 18 6 36a168 168 0 0 0 54 71l7 5q2 4-2 6a140 140 0 0 1-77 15q-3 6-10 9-24 12-50 9-17-3-34-10-26-8-54-9l-39 1-35 3-81 17-21 3q-14 1-20-12-15 11-32 15-33 8-64-4-16-6-30-16-7-3-12-9-2-3-1-6l5-3 20-8q16-6 31-15-17 5-33-1-4-2-4-6 15 1 30-5 19-5 34-21 10-15 13-34-6-8-16-13a168 168 0 0 1-53-62q-12-31-15-63-2-32 0-63a365 365 0 0 1 80-206l23-22q23-22 53-33 15-5 28-6l36-10q5-1 6-3 28-40 67-64 11-7 23-11M143 409l-3 14a382 382 0 0 0-1 113 160 160 0 0 0 39 79 304 304 0 0 1-36-189z" fill="#000000"/><use transform="translate(131 168)" href="#head-variant02-2d6701b5"/><path d="M565 114a213 213 0 0 1 55 22l3 9-13-2-30-3q-32 2-62 16 24 0 47 5 45 8 77 39 27 24 37 59 7 29 0 58a127 127 0 0 1-73 85l-20 8q-3 1-4-1 1-14 5-27l3-24-5-33-9 20q-14 26-40 41-20 12-42 17-27 6-56 9h-19l-4-4 7-10 14-29 8-25q4-21 5-42-17 35-41 66a299 299 0 0 1-67 59q-19 11-40 18-8 3-16 1l1-13 4-31q-10 24-16 50-5 41 5 83 2 7 2 15-12 3-23-2-42-17-59-60-2-3-7-5-14-9-23-23-13-22-16-48a204 204 0 0 1 29-137q17-28 42-52a146 146 0 0 1 75-38q14-2 29-7l28-9c27-10 50-24 77-36a229 229 0 0 1 132-19" fill="#000000"/></g><clipPath id="clip-2d6701b5"><rect width="980" height="980" rx="0" ry="0"/></clipPath></defs><g clip-path="url(#clip-2d6701b5)"><rect width="980" height="980" fill="#ffdfbf"/><use transform="translate(76 3)" href="#hair-variant17-2d6701b5"/></g></svg>